<?xml version="1.0" standalone="no"?><!DOCTYPE svg PUBLIC "-//W3C//DTD SVG 1.1//EN" "http://www.w3.org/Graphics/SVG/1.1/DTD/svg11.dtd"><svg t="1761986270884" class="icon" viewBox="0 0 1024 1024" version="1.1" xmlns="http://www.w3.org/2000/svg" p-id="5772" xmlns:xlink="http://www.w3.org/1999/xlink" width="60" height="60"><path d="M951.94 0H72.06C34.132 0 0 34.133 0 72.06v876.088C0 989.867 34.133 1024 72.06 1024h876.088c41.719 0 72.06-34.133 72.06-72.06V72.06C1024 34.132 989.866 0 951.94 0zM470.282 750.933l-41.718-113.777H246.519L204.8 750.933h-60.681l166.874-451.318h56.888l166.875 451.318H470.28z m390.638-7.585h-45.512V686.46c-11.377 18.963-30.34 34.134-49.303 45.511-22.756 15.17-49.304 18.963-79.645 18.963-34.133 0-56.889-7.585-75.852-26.548-18.963-18.963-30.34-37.926-30.34-64.474 0-37.926 15.17-64.474 45.51-83.437 26.549-18.963 64.475-26.548 109.986-26.548h75.852v-18.963c0-56.889-26.548-83.437-83.437-83.437-22.756 0-41.719 3.793-56.89 15.17-15.17 11.378-26.547 26.548-34.132 45.511l-49.304-3.792c7.585-34.134 22.755-60.682 49.304-75.852 22.755-15.17 53.096-22.756 91.022-22.756 45.51 0 79.644 11.378 102.4 37.926 18.963 22.756 30.34 53.097 30.34 91.023v208.592z" p-id="5773" fill="#0D1828"></path><path d="M337.54 379.26l-72.059 197.214H409.6L341.333 379.26zM629.57 659.91c0 15.17 3.793 26.548 18.963 37.926 11.378 11.378 30.341 15.17 49.304 15.17 30.34 0 56.889-11.377 79.644-30.34 22.756-18.963 34.134-41.719 34.134-68.267v-26.548h-72.06c-75.851 0-109.985 22.755-109.985 72.06z" p-id="5774" fill="#0D1828"></path></svg>